<?xml version="1.0" encoding="UTF-8" standalone="no"?>
<!DOCTYPE svg PUBLIC "-//W3C//DTD SVG 1.1//EN" "http://www.w3.org/Graphics/SVG/1.1/DTD/svg11.dtd">
<svg version="1.1" xmlns="http://www.w3.org/2000/svg" xmlns:xlink="http://www.w3.org/1999/xlink" preserveAspectRatio="xMidYMid meet" viewBox="0 0 40 40" width="40" height="40"><defs><path d="M35.56 4.44L35.56 35.56L4.44 35.56L4.44 4.44L35.56 4.44M4.44 0C1.99 0 0 1.99 0 4.44C0 7.56 0 32.44 0 35.56C0 38.01 1.99 40 4.44 40C7.56 40 32.44 40 35.56 40C38.01 40 40 38.01 40 35.56C40 32.44 40 7.56 40 4.44C40 1.99 38.01 0 35.56 0C29.33 0 7.56 0 4.44 0Z" id="b2SONQlkb6"></path></defs><g><g><g><use xlink:href="#b2SONQlkb6" opacity="1" fill="#7fdca2" fill-opacity="1"></use><g><use xlink:href="#b2SONQlkb6" opacity="1" fill-opacity="0" stroke="#000000" stroke-width="1" stroke-opacity="0"></use></g></g></g></g></svg>