<?xml version="1.0" encoding="UTF-8" standalone="no"?>
<!DOCTYPE svg PUBLIC "-//W3C//DTD SVG 1.1//EN" "http://www.w3.org/Graphics/SVG/1.1/DTD/svg11.dtd">
<svg version="1.1" xmlns="http://www.w3.org/2000/svg" xmlns:xlink="http://www.w3.org/1999/xlink" preserveAspectRatio="xMidYMid meet" viewBox="0 0 41 41" width="41" height="41"><defs><path d="M4.79 0.5C2.42 0.5 0.5 2.42 0.5 4.79C0.5 7.93 0.5 33.07 0.5 36.21C0.5 38.58 2.42 40.5 4.79 40.5C7.93 40.5 33.07 40.5 36.21 40.5C38.58 40.5 40.5 38.58 40.5 36.21C40.5 33.07 40.5 7.93 40.5 4.79C40.5 2.42 38.58 0.5 36.21 0.5C29.93 0.5 7.93 0.5 4.79 0.5ZM4.79 36.21L4.79 4.79L36.21 4.79L36.21 36.21L4.79 36.21ZM17.6 29.92C17.18 30.33 16.5 30.33 16.09 29.91C15.28 29.09 8.79 22.56 7.98 21.74C7.57 21.32 7.57 20.64 7.99 20.23C8.19 20.02 9.81 18.41 10.02 18.21C10.44 17.8 11.11 17.8 11.53 18.22C11.89 18.58 13.67 20.37 16.87 23.6C24.44 16.09 28.65 11.92 29.49 11.08C29.91 10.67 30.59 10.67 31.01 11.09C31.21 11.29 32.82 12.91 33.02 13.12C33.43 13.54 33.43 14.22 33.01 14.63C29.93 17.69 19.14 28.39 17.6 29.92Z" id="ck5TLUdCX"></path></defs><g><g><g><use xlink:href="#ck5TLUdCX" opacity="1" fill="#7fdca2" fill-opacity="1"></use><g><use xlink:href="#ck5TLUdCX" opacity="1" fill-opacity="0" stroke="#000000" stroke-width="1" stroke-opacity="0"></use></g></g></g></g></svg>